<svg width="190" height="95" viewBox="0 0 190 95" fill="none" xmlns="http://www.w3.org/2000/svg">
<path d="M3.76931 79.4393H18.0676V81.9125H3.76931V79.4393ZM4.07846 93.3898H1.21881V66.339H19.7679V68.8122H4.07846V93.3898Z" fill="#FFFCF2"/>
<path d="M37.9316 93.6217C35.8963 93.6217 34.0028 93.2868 32.2509 92.6169C30.5248 91.9214 29.0177 90.9553 27.7295 89.7186C26.4672 88.4563 25.4753 87.0007 24.7539 85.3519C24.0583 83.6773 23.7105 81.8481 23.7105 79.8644C23.7105 77.8807 24.0583 76.0644 24.7539 74.4156C25.4753 72.741 26.4672 71.2854 27.7295 70.0488C29.0177 68.7864 30.5248 67.8203 32.2509 67.1505C33.977 66.4549 35.8706 66.1071 37.9316 66.1071C39.9668 66.1071 41.8475 66.4549 43.5736 67.1505C45.2997 67.8203 46.7939 68.7736 48.0563 70.0102C49.3444 71.2468 50.3363 72.7024 51.0319 74.3769C51.7533 76.0515 52.1139 77.8807 52.1139 79.8644C52.1139 81.8481 51.7533 83.6773 51.0319 85.3519C50.3363 87.0264 49.3444 88.482 48.0563 89.7186C46.7939 90.9553 45.2997 91.9214 43.5736 92.6169C41.8475 93.2868 39.9668 93.6217 37.9316 93.6217ZM37.9316 91.0712C39.5546 91.0712 41.0489 90.8007 42.4143 90.2597C43.8055 89.6929 45.0034 88.9071 46.0082 87.9024C47.0387 86.8719 47.8373 85.6868 48.4041 84.3471C48.9709 82.9817 49.2543 81.4875 49.2543 79.8644C49.2543 78.2414 48.9709 76.76 48.4041 75.4203C47.8373 74.0549 47.0387 72.8698 46.0082 71.8651C45.0034 70.8346 43.8055 70.0488 42.4143 69.5078C41.0489 68.941 39.5546 68.6576 37.9316 68.6576C36.3085 68.6576 34.8014 68.941 33.4102 69.5078C32.019 70.0488 30.8082 70.8346 29.7777 71.8651C28.7729 72.8698 27.9743 74.0549 27.3817 75.4203C26.815 76.76 26.5316 78.2414 26.5316 79.8644C26.5316 81.4617 26.815 82.9431 27.3817 84.3085C27.9743 85.6739 28.7729 86.8719 29.7777 87.9024C30.8082 88.9071 32.019 89.6929 33.4102 90.2597C34.8014 90.8007 36.3085 91.0712 37.9316 91.0712Z" fill="#FFFCF2"/>
<path d="M59.2966 93.3898V66.339H69.4213C71.7142 66.339 73.6851 66.7125 75.3339 67.4597C76.9827 68.181 78.2451 69.2373 79.121 70.6285C80.0227 71.9939 80.4735 73.6556 80.4735 75.6136C80.4735 77.52 80.0227 79.1688 79.121 80.56C78.2451 81.9254 76.9827 82.9817 75.3339 83.7288C73.6851 84.4502 71.7142 84.8108 69.4213 84.8108H60.881L62.1562 83.4969V93.3898H59.2966ZM77.7685 93.3898L70.8125 83.5742H73.904L80.8986 93.3898H77.7685ZM62.1562 83.7288L60.881 82.3763H69.344C72.0491 82.3763 74.0973 81.7837 75.4885 80.5986C76.9054 79.4136 77.6139 77.7519 77.6139 75.6136C77.6139 73.4495 76.9054 71.7749 75.4885 70.5898C74.0973 69.4047 72.0491 68.8122 69.344 68.8122H60.881L62.1562 67.4597V83.7288Z" fill="#FFFCF2"/>
<path d="M90.5464 78.4346H104.845V80.8691H90.5464V78.4346ZM90.8556 90.9166H107.125V93.3898H87.9959V66.339H106.545V68.8122H90.8556V90.9166Z" fill="#FFFCF2"/>
<path d="M121.932 93.3898L109.953 66.339H113.044L124.251 91.8054H122.551L133.835 66.339H136.733L124.753 93.3898H121.932Z" fill="#FFFCF2"/>
<path d="M143.982 78.4346H158.281V80.8691H143.982V78.4346ZM144.291 90.9166H160.561V93.3898H141.432V66.339H159.981V68.8122H144.291V90.9166Z" fill="#FFFCF2"/>
<path d="M168.055 93.3898V66.339H178.18C180.473 66.339 182.443 66.7125 184.092 67.4597C185.741 68.181 187.003 69.2373 187.879 70.6285C188.781 71.9939 189.232 73.6556 189.232 75.6136C189.232 77.52 188.781 79.1688 187.879 80.56C187.003 81.9254 185.741 82.9817 184.092 83.7288C182.443 84.4502 180.473 84.8108 178.18 84.8108H169.639L170.915 83.4969V93.3898H168.055ZM186.527 93.3898L179.571 83.5742H182.662L189.657 93.3898H186.527ZM170.915 83.7288L169.639 82.3763H178.102C180.808 82.3763 182.856 81.7837 184.247 80.5986C185.664 79.4136 186.372 77.7519 186.372 75.6136C186.372 73.4495 185.664 71.7749 184.247 70.5898C182.856 69.4047 180.808 68.8122 178.102 68.8122H169.639L170.915 67.4597V83.7288Z" fill="#FFFCF2"/>
<path d="M37.8747 58.3525C33.7097 58.3525 30.0171 57.5367 26.7968 55.9051C23.5764 54.3163 21.0431 52.1265 19.1968 49.3356C17.3934 46.5017 16.4917 43.3028 16.4917 39.739C16.4917 37.5062 16.8781 35.2091 17.651 32.8475C18.0804 31.6023 18.7029 30.5074 19.5188 29.5627C20.3347 28.618 21.1934 27.8451 22.0951 27.2441C22.9968 26.643 23.7696 26.2566 24.4137 26.0847C24.886 25.9559 25.1866 25.8915 25.3154 25.8915C25.616 25.8915 25.5086 26.1062 24.9934 26.5356C24.5211 26.922 23.9199 27.3515 23.19 27.8237C22.3741 28.382 21.4296 29.2193 20.3561 30.3356C19.2826 31.4519 18.5527 33.1051 18.1663 35.2949C18.0804 35.8102 18.016 36.3254 17.973 36.8407C17.93 37.3559 17.9086 37.8498 17.9086 38.322C17.9086 41.1129 18.5313 43.582 19.7764 45.7288C21.0646 47.8328 22.7177 49.5932 24.7357 51.0102C26.7538 52.4271 28.9436 53.5006 31.3052 54.2305C33.7097 54.9604 36.0069 55.3254 38.1968 55.3254C41.6747 55.3254 44.8951 54.6384 47.8578 53.2644C50.8205 51.9333 53.5256 50.0871 55.973 47.7254C58.4635 45.3638 60.6961 42.6587 62.6713 39.6102C64.6465 36.5186 66.3855 33.2553 67.8883 29.8203C67.5448 29.8203 67.051 29.8203 66.4069 29.8203C65.7629 29.7773 65.0544 29.7559 64.2815 29.7559C63.1222 29.7559 61.8555 29.8418 60.4815 30.0136C59.1504 30.1424 57.8838 30.4644 56.6815 30.9797C55.5222 31.4519 54.5775 32.2034 53.8476 33.2339C53.59 33.5345 53.3538 33.6847 53.1391 33.6847C52.9673 33.6847 52.8385 33.5773 52.7527 33.3627C52.6669 33.1481 52.6883 32.9119 52.8171 32.6542C53.8476 30.3786 55.2646 28.8328 57.068 28.0169C58.8713 27.2011 60.8894 26.7932 63.1222 26.7932C64.0669 26.7932 65.0114 26.8576 65.9561 26.9864C66.9436 27.0723 67.9097 27.2011 68.8544 27.3729C69.6273 25.5265 70.486 23.6803 71.4307 21.8339C72.3754 19.9875 73.2985 18.2701 74.2002 16.6814C75.1018 15.0926 75.9177 13.7616 76.6476 12.6881C77.3775 11.5717 77.8928 10.8418 78.1934 10.4983C75.4453 9.12428 72.6114 7.85761 69.6917 6.6983C66.772 5.53898 63.7233 4.74462 60.5459 4.31525C59.9018 4.22937 59.2578 4.16496 58.6137 4.12203C57.9696 4.07909 57.347 4.05763 56.7459 4.05763C53.912 4.05763 51.3787 4.50847 49.1459 5.41015C46.9131 6.31186 45.0239 7.47118 43.4781 8.88813C41.9324 10.2621 40.7516 11.7435 39.9357 13.3322C39.1199 14.878 38.712 16.3379 38.712 17.7119C38.712 19.5153 39.3561 20.8034 40.6442 21.5763C41.4171 22.0485 42.19 22.3921 42.9629 22.6068C43.7787 22.8214 44.5516 22.9288 45.2815 22.9288C46.9131 22.9288 48.3944 22.5854 49.7256 21.8983C51.0567 21.2112 52.1086 20.4599 52.8815 19.6441C53.6974 18.7854 54.1052 18.1413 54.1052 17.7119C54.1052 17.2824 54.2341 16.9176 54.4917 16.6169C54.7493 16.2735 54.9639 16.1017 55.1357 16.1017C55.3075 16.1017 55.3934 16.2519 55.3934 16.5525C55.3934 16.7672 55.329 17.0678 55.2002 17.4542C54.5561 19.6871 53.2465 21.4045 51.2713 22.6068C49.3391 23.7661 47.2995 24.3458 45.1527 24.3458C44.251 24.3458 43.3493 24.2384 42.4476 24.0237C41.5889 23.8091 40.773 23.4871 40.0002 23.0576C38.5832 22.2418 37.5313 21.2112 36.8442 19.9661C36.1572 18.678 35.8137 17.304 35.8137 15.8441C35.8137 14.1695 36.2431 12.452 37.1018 10.6915C37.9606 8.88813 39.1843 7.25648 40.773 5.79659C42.4046 4.29377 44.3584 3.09151 46.6341 2.18981C48.9097 1.24519 51.486 0.772873 54.3629 0.772873C56.5527 0.772873 59.0002 1.13784 61.7052 1.86778C65.269 2.81242 68.5538 3.9932 71.5595 5.41015C74.5652 6.78417 77.0555 8.09377 79.0307 9.33897C79.3313 8.99547 79.825 8.54462 80.512 7.98644C81.1991 7.42824 82.0792 7.14913 83.1527 7.14913C83.5391 7.14913 83.99 7.21356 84.5052 7.34237C84.8917 7.47117 85.1707 7.68587 85.3425 7.98644C85.5572 8.28699 85.6646 8.58756 85.6646 8.88813C85.6646 9.27457 85.5358 9.46779 85.2781 9.46779C85.1063 9.46779 84.8487 9.27457 84.5052 8.88813C84.2046 8.7593 83.8826 8.6949 83.5391 8.6949C82.9809 8.6949 82.4442 8.84519 81.929 9.14576C81.4137 9.44631 80.9629 9.76835 80.5764 10.1118C81.3493 10.4983 82.3584 10.9492 83.6035 11.4644C84.8917 11.9797 86.3086 12.4949 87.8544 13.0102C89.4002 13.5254 90.9459 13.9548 92.4917 14.2983C94.0804 14.5989 95.5402 14.7492 96.8713 14.7492C97.9877 14.7492 98.9968 14.5989 99.8985 14.2983C100.8 13.9977 101.444 13.4395 101.831 12.6237C102.174 11.8079 102.496 11.4 102.797 11.4C103.011 11.4 103.119 11.6361 103.119 12.1085C103.119 12.2373 103.119 12.3661 103.119 12.4949C103.119 12.6237 103.097 12.7525 103.054 12.8813C102.883 14.0407 102.174 15.0282 100.929 15.8441C99.6838 16.6169 98.1809 17.0034 96.4205 17.0034C96.1629 17.0034 95.8838 17.0034 95.5832 17.0034C95.3256 16.9604 95.0465 16.9176 94.7459 16.8746C92.2555 16.4451 89.9368 15.8226 87.79 15.0068C85.6432 14.191 83.8398 13.4181 82.3798 12.6881C80.9629 11.9582 80.0398 11.5073 79.6103 11.3356C78.2364 12.8814 77.0126 14.6847 75.9391 16.7458C74.8656 18.8068 73.9211 20.8464 73.1052 22.8644C72.3324 24.8824 71.6239 26.6 70.9798 28.0169C72.3109 28.1888 73.7493 28.3176 75.2951 28.4034C76.8838 28.4464 78.3652 28.4678 79.7391 28.4678C80.4262 28.4678 81.0487 28.4678 81.6069 28.4678C82.208 28.4248 82.7233 28.4034 83.1527 28.4034H83.5391C84.3978 28.4034 84.8273 28.5536 84.8273 28.8542C84.8273 29.1549 84.3334 29.4339 83.3459 29.6915C82.7019 29.8633 81.6069 29.9921 80.0612 30.078C78.5584 30.1638 76.9911 30.2068 75.3595 30.2068C74.372 30.2068 73.4273 30.1854 72.5256 30.1424C71.6239 30.0994 70.851 30.035 70.2069 29.9492C69.3052 32.3966 68.2747 34.9299 67.1154 37.5492C65.9561 40.1684 64.5391 42.7231 62.8646 45.2136C61.233 47.661 59.2578 49.8723 56.9391 51.8475C54.6635 53.8655 51.9584 55.4542 48.8239 56.6136C45.6894 57.7729 42.0398 58.3525 37.8747 58.3525Z" fill="#FFFCF2"/>
<path d="M87.9017 50.1085C86.0983 50.1085 84.8746 49.6362 84.2305 48.6915C83.5865 47.704 83.2644 46.5447 83.2644 45.2136C83.2644 43.8396 83.4577 42.4227 83.8441 40.9627C84.2305 39.5028 84.574 38.279 84.8746 37.2915C85.5615 34.8871 86.4204 32.3322 87.4509 29.6271C88.5242 26.879 89.6835 24.1955 90.9288 21.5763C92.217 18.9142 93.4835 16.5311 94.7288 14.4271C95.7164 12.7525 96.7683 11.5073 97.8848 10.6915C99.0441 9.83276 100.053 9.40339 100.912 9.40339C101.599 9.40339 102.136 9.66102 102.522 10.1763C102.951 10.6486 103.166 11.3785 103.166 12.3661C103.166 13.0531 103.037 13.8689 102.78 14.8136C102.565 15.7582 102.178 16.8316 101.62 18.0339C100.117 21.383 98.314 24.7322 96.2102 28.0814C94.1492 31.4305 91.5299 34.565 88.3526 37.4847C88.1808 38.043 87.9446 38.7085 87.6441 39.4814C87.3865 40.2112 87.1503 40.9627 86.9356 41.7356C86.678 42.8949 86.5492 43.8824 86.5492 44.6983C86.5492 46.0294 86.8068 47.0384 87.3221 47.7254C87.8802 48.3695 88.5458 48.6915 89.3187 48.6915C90.0056 48.6915 90.7356 48.4553 91.5085 47.9831C92.2814 47.4678 93.0113 46.7379 93.6983 45.7932C94.7288 44.2905 95.652 42.7661 96.4678 41.2203C97.3265 39.6316 97.9706 38.4079 98.4 37.5492C98.6577 37.0769 98.9367 36.8407 99.2373 36.8407C99.452 36.8407 99.5594 36.9695 99.5594 37.2271C99.5594 37.4418 99.4949 37.678 99.3661 37.9356C98.9797 38.7943 98.4644 39.9108 97.8204 41.2847C97.2191 42.6159 96.4463 43.9684 95.5017 45.3424C94.6 46.6735 93.5051 47.8112 92.217 48.7559C90.9717 49.6576 89.5333 50.1085 87.9017 50.1085ZM88.8678 35.4237C90.4136 33.835 91.9164 32.0102 93.3763 29.9492C94.8361 27.8451 96.1886 25.6769 97.4339 23.4441C98.7221 21.1684 99.7954 19.0214 100.654 17.0034C100.955 16.3593 101.191 15.6508 101.363 14.878C101.577 14.1051 101.685 13.461 101.685 12.9458C101.685 12.3446 101.534 12.0441 101.234 12.0441C101.062 12.0441 100.805 12.2158 100.461 12.5593C100.117 12.8599 99.6666 13.3966 99.1085 14.1695C98.2926 15.2429 97.3909 16.7028 96.4034 18.5492C95.4587 20.3955 94.4926 22.3706 93.5051 24.4746C92.5174 26.5786 91.6157 28.618 90.8 30.5932C89.9842 32.5254 89.3401 34.1356 88.8678 35.4237Z" fill="#FFFCF2"/>
<path d="M101.484 49.9153C99.8529 49.9153 98.6506 49.3786 97.8777 48.3051C97.1048 47.1888 96.7184 45.8362 96.7184 44.2475C96.7184 42.3153 97.1692 40.2972 98.0709 38.1932C98.9296 36.218 100.025 34.4146 101.356 32.7831C102.687 31.1515 104.125 29.8418 105.671 28.8542C107.217 27.8237 108.719 27.3085 110.179 27.3085C111.811 27.3085 113.013 27.8451 113.786 28.9186C114.559 29.9921 114.945 31.3447 114.945 32.9763C114.945 34.9515 114.495 36.9695 113.593 39.0305C113.078 40.1898 112.348 41.478 111.403 42.8949C110.458 44.2689 109.385 45.5356 108.183 46.6949C108.44 47.1672 108.805 47.5752 109.278 47.9186C109.75 48.2193 110.394 48.3695 111.21 48.3695C112.24 48.3695 113.207 47.9401 114.108 47.0814C115.053 46.2227 115.912 45.1921 116.684 43.9898C117.457 42.7447 118.144 41.4994 118.745 40.2542C119.347 39.0091 119.84 38 120.227 37.2271C120.356 36.9695 120.57 36.8407 120.871 36.8407C121.043 36.8407 121.172 36.9265 121.257 37.0983C121.343 37.2271 121.322 37.4418 121.193 37.7424C120.935 38.3864 120.506 39.3525 119.905 40.6407C119.304 41.8858 118.574 43.1955 117.715 44.5695C116.856 45.9006 115.869 47.0384 114.752 47.983C113.636 48.9277 112.391 49.4 111.017 49.4C110.072 49.4 109.256 49.2498 108.569 48.9492C107.882 48.6057 107.324 48.1977 106.895 47.7254C105.993 48.4125 105.091 48.9492 104.19 49.3356C103.288 49.722 102.386 49.9153 101.484 49.9153ZM102.451 48.4983C103.61 48.4983 104.855 47.9401 106.186 46.8237C105.843 46.3085 105.585 45.7718 105.413 45.2136C105.241 44.6553 105.156 44.1401 105.156 43.6678C105.156 42.8949 105.327 42.2294 105.671 41.6712C106.057 41.1129 106.637 40.8339 107.41 40.8339C107.968 40.8339 108.419 41.0485 108.762 41.478C109.149 41.8644 109.342 42.3153 109.342 42.8305C109.342 42.9593 109.321 43.0881 109.278 43.2169C109.278 43.3028 109.256 43.4102 109.213 43.539C109.943 42.5515 110.63 41.3921 111.274 40.061C112.691 37.0125 113.4 34.5006 113.4 32.5254C113.4 31.5379 113.207 30.765 112.82 30.2068C112.434 29.6485 111.854 29.3695 111.081 29.3695C110.179 29.3695 109.192 29.7559 108.118 30.5288C107.088 31.3017 106.079 32.3322 105.091 33.6203C104.147 34.9085 103.309 36.3468 102.579 37.9356C101.892 39.3955 101.334 40.8125 100.905 42.1864C100.518 43.5176 100.325 44.6769 100.325 45.6644C100.325 46.5231 100.497 47.2102 100.84 47.7254C101.184 48.2407 101.721 48.4983 102.451 48.4983Z" fill="#FFFCF2"/>
<path d="M127.631 49.9797C126.815 49.9797 125.999 49.6576 125.184 49.0136C124.368 48.3265 123.96 47.2316 123.96 45.7288C123.96 44.5695 124.239 43.2384 124.797 41.7356C125.312 40.2757 125.999 38.8587 126.858 37.4847C127.76 36.1108 128.404 34.9943 128.79 34.1356C128.919 33.7921 128.984 33.4915 128.984 33.2339C128.984 32.461 128.49 31.9028 127.502 31.5593C126.558 31.2159 125.312 31.0227 123.767 30.9797L122.994 33.1051C122.521 34.479 121.856 36.0892 120.997 37.9356C120.181 39.782 119.258 41.5638 118.228 43.2814C117.24 44.9989 116.21 46.3729 115.136 47.4034C115.05 47.4892 114.943 47.5322 114.814 47.5322C114.642 47.5322 114.535 47.4248 114.492 47.2102C114.406 46.9955 114.492 46.7379 114.75 46.4373C116.424 44.2045 117.927 41.7356 119.258 39.0305C120.589 36.2824 121.706 33.4915 122.607 30.6576C123.552 27.8237 124.239 25.2045 124.668 22.8C124.797 22.1129 125.033 21.6193 125.377 21.3186C125.72 20.9752 126.085 20.8034 126.472 20.8034C127.03 20.8034 127.545 21.0824 128.017 21.6407C128.49 22.1559 128.726 22.9074 128.726 23.8949C128.726 24.0667 128.705 24.2599 128.662 24.4746C128.662 24.6892 128.64 24.904 128.597 25.1186C128.426 26.0203 127.91 26.879 127.051 27.6949C126.236 28.4678 125.57 29.0475 125.055 29.4339C125.484 29.4769 125.935 29.5197 126.407 29.5627C126.88 29.5627 127.395 29.5627 127.953 29.5627C129.971 29.5627 131.968 29.4339 133.943 29.1763C134.029 29.4339 134.072 29.6271 134.072 29.7559C134.072 30.3142 133.9 31.0227 133.556 31.8814C133.256 32.7401 132.934 33.5129 132.59 34.2C132.419 34.5864 132.075 35.2949 131.56 36.3254C131.045 37.3129 130.487 38.4508 129.885 39.739C129.284 40.9841 128.769 42.2294 128.34 43.4746C127.953 44.6769 127.76 45.7074 127.76 46.5661C127.76 47.6824 128.189 48.2407 129.048 48.2407C129.692 48.2407 130.401 47.8328 131.173 47.017C131.946 46.1582 132.698 45.1277 133.428 43.9254C134.201 42.6803 134.888 41.478 135.489 40.3186C136.133 39.1163 136.627 38.1718 136.97 37.4847C137.142 37.0553 137.378 36.8407 137.679 36.8407C137.85 36.8407 137.936 36.9909 137.936 37.2915C137.936 37.4633 137.872 37.721 137.743 38.0644C137.271 39.0519 136.712 40.1684 136.068 41.4136C135.424 42.6587 134.694 43.8824 133.878 45.0847C133.106 46.2871 132.247 47.339 131.302 48.2407C130.401 49.0994 129.413 49.6576 128.34 49.9153C128.211 49.9582 127.975 49.9797 127.631 49.9797Z" fill="#FFFCF2"/>
<path d="M150.672 50.1085C150.2 50.1515 149.663 50.0441 149.062 49.7864C148.461 49.5288 147.924 49.0566 147.452 48.3695C147.022 47.6824 146.808 46.7163 146.808 45.4712C146.808 44.4407 147.001 43.1955 147.387 41.7356C146.872 42.5515 146.207 43.5604 145.391 44.7627C144.575 45.922 143.695 46.9525 142.75 47.8542C141.934 48.6271 141.161 49.1854 140.431 49.5288C139.702 49.8723 139.036 50.0441 138.435 50.0441C137.318 50.0441 136.417 49.5502 135.73 48.5627C135.043 47.5322 134.699 46.2011 134.699 44.5695C134.699 42.8519 135.129 40.8983 135.987 38.7085C136.846 36.5186 138.242 34.243 140.174 31.8814C141.419 30.3786 142.922 29.1763 144.682 28.2746C146.486 27.3299 148.246 26.8576 149.964 26.8576C150.951 26.8576 151.896 27.0294 152.798 27.3729C153.699 27.6735 154.494 28.1888 155.181 28.9186C155.481 29.2193 155.631 29.5627 155.631 29.9492C155.631 30.2068 155.524 30.4214 155.309 30.5932C155.095 30.765 154.816 30.8079 154.472 30.722C154 29.2193 152.991 28.4678 151.445 28.4678C150.715 28.4678 149.878 28.704 148.933 29.1763C147.473 29.9492 145.949 31.2159 144.36 32.9763C142.814 34.7367 141.462 36.5616 140.303 38.4508C140.131 38.7085 139.852 39.2023 139.465 39.9322C139.122 40.6621 138.778 41.478 138.435 42.3797C138.091 43.2814 137.855 44.1616 137.726 45.0203C137.683 45.278 137.662 45.4712 137.662 45.6C137.662 45.6858 137.662 45.8362 137.662 46.0508C137.662 47.4678 138.199 48.1763 139.272 48.1763C140.56 48.1763 142.02 47.2316 143.652 45.3424C144.768 43.9684 145.777 42.5299 146.679 41.0271C147.581 39.5243 148.504 37.9142 149.448 36.1966C150.092 35.0373 150.694 34.0712 151.252 33.2983C151.81 32.5254 152.604 32.139 153.635 32.139C154.107 32.139 154.579 32.2034 155.052 32.3322C155.524 32.461 156.018 32.4824 156.533 32.3966C156.19 32.7401 155.717 33.3841 155.116 34.3288C154.558 35.2735 153.957 36.3468 153.313 37.5492C152.669 38.7515 152.089 39.9752 151.574 41.2203C151.059 42.4655 150.694 43.539 150.479 44.4407C150.436 44.6983 150.371 45.0633 150.286 45.5356C150.243 46.0079 150.221 46.3515 150.221 46.5661C150.221 47.7684 150.565 48.3695 151.252 48.3695C151.939 48.3695 152.669 47.9616 153.442 47.1458C154.257 46.3299 155.052 45.321 155.825 44.1186C156.598 42.9163 157.306 41.7142 157.95 40.5119C158.594 39.2667 159.109 38.2576 159.496 37.4847C159.668 37.0553 159.925 36.8407 160.269 36.8407C160.483 36.8407 160.591 36.9909 160.591 37.2915C160.591 37.4203 160.526 37.6566 160.398 38C159.882 39.0735 159.26 40.2972 158.53 41.6712C157.8 43.0023 157.005 44.3119 156.147 45.6C155.288 46.8451 154.386 47.8972 153.442 48.7559C152.54 49.5718 151.617 50.0227 150.672 50.1085Z" fill="#FFFCF2"/>
</svg>
